<?xml version="1.0" encoding="UTF-8" standalone="no"?>
<!-- Created with Inkscape (http://www.inkscape.org/) -->

<svg
   width="900"
   height="345"
   viewBox="0 0 238.12529 91.281653"
   version="1.1"
   id="svg1"
   inkscape:version="1.4 (86a8ad7, 2024-10-11)"
   sodipodi:docname="logo_horizontal_RGB.svg"
   xmlns:inkscape="http://www.inkscape.org/namespaces/inkscape"
   xmlns:sodipodi="http://sodipodi.sourceforge.net/DTD/sodipodi-0.dtd"
   xmlns="http://www.w3.org/2000/svg"
   xmlns:svg="http://www.w3.org/2000/svg">
  <sodipodi:namedview
     id="namedview1"
     pagecolor="#505050"
     bordercolor="#eeeeee"
     borderopacity="1"
     inkscape:showpageshadow="0"
     inkscape:pageopacity="0"
     inkscape:pagecheckerboard="0"
     inkscape:deskcolor="#505050"
     inkscape:document-units="mm"
     inkscape:zoom="0.73512619"
     inkscape:cx="425.09708"
     inkscape:cy="221.05048"
     inkscape:window-width="2560"
     inkscape:window-height="1369"
     inkscape:window-x="1912"
     inkscape:window-y="-8"
     inkscape:window-maximized="1"
     inkscape:current-layer="layer1"
     showguides="true">
    <sodipodi:guide
       position="8.0599697,79.985348"
       orientation="1,0"
       id="guide1"
       inkscape:locked="false" />
    <sodipodi:guide
       position="75.639057,79.985348"
       orientation="1,0"
       id="guide2"
       inkscape:locked="false" />
    <sodipodi:guide
       position="8.0599697,79.985348"
       orientation="0,-1"
       id="guide3"
       inkscape:locked="false" />
    <sodipodi:guide
       position="8.0599697,10.991423"
       orientation="0,-1"
       id="guide4"
       inkscape:locked="false" />
    <sodipodi:guide
       position="85.891069,71.609158"
       orientation="1,0"
       id="guide5"
       inkscape:locked="false" />
    <sodipodi:guide
       position="229.84573,71.609158"
       orientation="1,0"
       id="guide6"
       inkscape:locked="false" />
  </sodipodi:namedview>
  <defs
     id="defs1" />
  <g
     inkscape:label="Logo_complet"
     inkscape:groupmode="layer"
     id="layer1">
    <rect
       style="fill:#ffffff;fill-opacity:1;stroke-width:1.25018;stroke-linejoin:round"
       id="rect1"
       width="238.125"
       height="91.281654"
       x="0"
       y="0"
       inkscape:label="Fond_blanc" />
    <g
       id="text10"
       style="font-size:10.5834px;font-family:'Libre Baskerville';-inkscape-font-specification:'Libre Baskerville';letter-spacing:1.8124px;word-spacing:0px;fill:#2c3a33;fill-opacity:0.599078;stroke-width:0.860977;stroke-linejoin:round"
       inkscape:label="Sous-titre"
       aria-label="Ingénierie écologique &#10;&amp; Biostatistiques">
      <path
         style="-inkscape-font-specification:'Sans, Normal'"
         d="m 88.621482,67.18145 h -2.730518 v -0.550337 l 0.889006,-0.201084 v -6.043122 l -0.889006,-0.211668 v -0.550337 h 2.730518 v 0.550337 l -0.889006,0.211668 v 6.043122 l 0.889006,0.201084 z m 8.046029,-6.053705 v 6.053705 h -1.132423 l -3.069186,-4.910698 h -0.04233 q 0.02117,0.285752 0.04233,0.719672 0.02117,0.423336 0.02117,0.762004 V 67.18145 H 91.65098 v -6.053705 h 1.132424 l 3.058602,4.889531 h 0.03175 q -0.02117,-0.222251 -0.03175,-0.635004 -0.01058,-0.412753 -0.01058,-0.783172 v -3.471355 z m 8.236519,5.767953 q -0.45509,0.169334 -1.00543,0.275168 -0.53975,0.09525 -1.143,0.09525 -1.4076,0 -2.20135,-0.793755 -0.783172,-0.793755 -0.783172,-2.307181 0,-0.910172 0.359832,-1.608677 0.35984,-0.698504 1.06893,-1.100673 0.70908,-0.40217 1.73567,-0.40217 1.06893,0 1.87327,0.370419 l -0.31751,0.751422 q -0.74083,-0.349252 -1.56634,-0.349252 -1.06892,0 -1.62984,0.645587 -0.56092,0.645587 -0.56092,1.682761 0,1.15359 0.55033,1.746261 0.55034,0.59267 1.60868,0.59267 0.64559,0 1.12184,-0.169334 v -1.629844 h -1.52401 V 63.94293 h 2.41302 z m 3.23058,-5.767953 h 3.47136 v 0.751422 h -2.5506 v 1.788594 h 2.39185 v 0.740838 h -2.39185 v 2.02143 h 2.5506 v 0.751421 h -3.47136 z m 3.37611,-2.159013 q -0.127,0.190501 -0.39159,0.497419 -0.26458,0.296336 -0.5715,0.603254 -0.29634,0.296335 -0.55034,0.486837 h -0.61384 v -0.127001 q 0.15875,-0.201085 0.33867,-0.476253 0.1905,-0.275169 0.37042,-0.56092 0.17992,-0.296336 0.29634,-0.52917 h 1.12184 z m 8.18361,2.159013 v 6.053705 h -1.13242 l -3.06919,-4.910698 h -0.0423 q 0.0212,0.285752 0.0423,0.719672 0.0212,0.423336 0.0212,0.762004 v 3.429022 h -0.83609 v -6.053705 h 1.13242 l 3.0586,4.889531 h 0.0318 q -0.0212,-0.222251 -0.0318,-0.635004 -0.0106,-0.412753 -0.0106,-0.783172 v -3.471355 z m 2.99773,6.053705 v -0.52917 l 0.68792,-0.169334 v -4.646113 l -0.68792,-0.158751 v -0.550337 h 2.30718 v 0.550337 l -0.68792,0.158751 v 4.646113 l 0.68792,0.169334 v 0.52917 z m 5.28376,-6.053705 h 3.47136 v 0.751422 h -2.5506 v 1.788594 h 2.39185 v 0.740838 h -2.39185 v 2.02143 h 2.5506 v 0.751421 h -3.47136 z m 8.22594,0 q 2.33894,0 2.33894,1.725094 0,0.582087 -0.28576,1.005423 -0.28575,0.423336 -0.91017,0.635004 l 1.68276,2.688184 h -1.04775 l -1.44993,-2.455349 h -1.09009 V 67.18145 H 134.519 v -6.053705 z m 0.0741,2.857518 q 0.62442,0 0.97367,-0.254001 0.34925,-0.254002 0.34925,-0.804339 0,-0.582087 -0.35983,-0.814922 -0.35984,-0.243418 -1.04776,-0.243418 h -0.75142 v 2.11668 z m 5.06151,3.196187 v -0.52917 l 0.68792,-0.169334 v -4.646113 l -0.68792,-0.158751 v -0.550337 h 2.30718 v 0.550337 l -0.68792,0.158751 v 4.646113 l 0.68792,0.169334 v 0.52917 z m 5.28376,-6.053705 h 3.47135 v 0.751422 h -2.5506 v 1.788594 h 2.39185 v 0.740838 h -2.39185 v 2.02143 h 2.5506 v 0.751421 h -3.47135 z m 11.10726,0 h 3.47136 v 0.751422 h -2.5506 v 1.788594 h 2.39185 v 0.740838 h -2.39185 v 2.02143 h 2.5506 v 0.751421 h -3.47136 z m 3.37611,-2.159013 q -0.127,0.190501 -0.39159,0.497419 -0.26458,0.296336 -0.5715,0.603254 -0.29634,0.296335 -0.55034,0.486837 h -0.61383 v -0.127001 q 0.15875,-0.201085 0.33866,-0.476253 0.19051,-0.275169 0.37042,-0.56092 0.17992,-0.296336 0.29634,-0.52917 h 1.12184 z m 5.83409,2.857518 q -0.9525,0 -1.47109,0.635004 -0.51859,0.62442 -0.51859,1.693344 0,1.09009 0.48684,1.71451 0.49742,0.613838 1.49226,0.613838 0.39159,0 0.75142,-0.07408 0.37042,-0.08467 0.71967,-0.222252 v 0.814922 q -0.66675,0.264585 -1.60867,0.264585 -0.94193,0 -1.56635,-0.391586 -0.62442,-0.391585 -0.94192,-1.09009 -0.30692,-0.709088 -0.30692,-1.640427 0,-0.910172 0.34925,-1.608677 0.35984,-0.698504 1.01601,-1.09009 0.66675,-0.402169 1.57693,-0.402169 0.93134,0 1.72509,0.381002 l -0.30692,0.751422 q -0.32808,-0.158751 -0.67733,-0.254002 -0.34926,-0.09525 -0.71968,-0.09525 z m 9.87695,2.317764 q 0,0.931339 -0.30692,1.640427 -0.30692,0.698505 -0.93134,1.09009 -0.62442,0.391586 -1.58751,0.391586 -0.9525,0 -1.58751,-0.391586 -0.635,-0.391585 -0.9525,-1.100673 -0.30692,-0.709088 -0.30692,-1.640427 0,-0.920756 0.30692,-1.61926 0.3175,-0.698505 0.9525,-1.090091 0.63501,-0.391585 1.58751,-0.391585 0.96309,0 1.58751,0.391585 0.62442,0.391586 0.93134,1.100674 0.30692,0.698504 0.30692,1.61926 z m -4.69903,0 q 0,1.05834 0.44451,1.693344 0.45508,0.635004 1.41817,0.635004 0.97367,0 1.41818,-0.635004 0.4445,-0.635004 0.4445,-1.693344 0,-1.100673 -0.46567,-1.703927 -0.46567,-0.613837 -1.39701,-0.613837 -0.96309,0 -1.41817,0.635004 -0.44451,0.62442 -0.44451,1.68276 z m 8.72337,-3.016269 v 5.281117 h 2.69876 v 0.772588 h -3.61952 v -6.053705 z m 10.82944,3.016269 q 0,0.931339 -0.30692,1.640427 -0.30692,0.698505 -0.93134,1.09009 -0.62442,0.391586 -1.58751,0.391586 -0.95251,0 -1.58751,-0.391586 -0.635,-0.391585 -0.95251,-1.100673 -0.30692,-0.709088 -0.30692,-1.640427 0,-0.920756 0.30692,-1.61926 0.31751,-0.698505 0.95251,-1.090091 0.635,-0.391585 1.58751,-0.391585 0.96309,0 1.58751,0.391585 0.62442,0.391586 0.93134,1.100674 0.30692,0.698504 0.30692,1.61926 z m -4.69903,0 q 0,1.05834 0.4445,1.693344 0.45509,0.635004 1.41818,0.635004 0.97367,0 1.41817,-0.635004 0.4445,-0.635004 0.4445,-1.693344 0,-1.100673 -0.46567,-1.703927 -0.46566,-0.613837 -1.397,-0.613837 -0.96309,0 -1.41818,0.635004 -0.4445,0.62442 -0.4445,1.68276 z m 12.6498,2.751684 q -0.45508,0.169334 -1.00542,0.275168 -0.53975,0.09525 -1.14301,0.09525 -1.40759,0 -2.20134,-0.793755 -0.78317,-0.793755 -0.78317,-2.307181 0,-0.910172 0.35983,-1.608677 0.35984,-0.698504 1.06892,-1.100673 0.70909,-0.40217 1.73568,-0.40217 1.06893,0 1.87326,0.370419 l -0.3175,0.751422 q -0.74084,-0.349252 -1.56634,-0.349252 -1.06892,0 -1.62985,0.645587 -0.56092,0.645587 -0.56092,1.682761 0,1.15359 0.55034,1.746261 0.55034,0.59267 1.60868,0.59267 0.64559,0 1.12184,-0.169334 v -1.629844 h -1.52401 V 63.94293 h 2.41301 z m 2.839,0.285752 v -0.52917 l 0.68792,-0.169334 v -4.646113 l -0.68792,-0.158751 v -0.550337 h 2.30718 v 0.550337 l -0.68792,0.158751 v 4.646113 l 0.68792,0.169334 v 0.52917 z m 10.6813,-3.037436 q 0,1.05834 -0.41276,1.841512 -0.40217,0.783171 -1.30175,1.09009 l 1.43934,1.545176 h -1.24884 l -1.14301,-1.354675 h -0.15875 q -0.95251,0 -1.58751,-0.391586 -0.63501,-0.391585 -0.95251,-1.100673 -0.30692,-0.709088 -0.30692,-1.640427 0,-0.920756 0.30692,-1.61926 0.3175,-0.698505 0.95251,-1.090091 0.635,-0.391585 1.58751,-0.391585 0.96309,0 1.58751,0.391585 0.62442,0.391586 0.93134,1.100674 0.30692,0.698504 0.30692,1.61926 z m -4.67787,0 q 0,1.05834 0.44451,1.703928 0.4445,0.635004 1.40759,0.635004 0.98425,0 1.41817,-0.635004 0.44451,-0.635004 0.44451,-1.703928 0,-1.100673 -0.46567,-1.703927 -0.45509,-0.613837 -1.38643,-0.613837 -0.96309,0 -1.41817,0.635004 -0.44451,0.635004 -0.44451,1.68276 z m 12.57572,0.793755 q 0,1.09009 -0.63501,1.714511 -0.635,0.613837 -1.82034,0.613837 -1.15359,0 -1.77801,-0.603254 -0.61384,-0.613837 -0.61384,-1.71451 v -3.820608 h 0.93134 v 3.778274 q 0,0.772588 0.381,1.185341 0.39159,0.402169 1.13243,0.402169 0.71967,0 1.09009,-0.402169 0.381,-0.412753 0.381,-1.164174 v -3.799441 h 0.93134 z m 3.32584,-3.810024 h 3.47135 v 0.751422 h -2.5506 v 1.788594 h 2.39185 v 0.740838 h -2.39185 v 2.02143 h 2.5506 v 0.751421 h -3.47135 z"
         id="path2" />
      <path
         style="-inkscape-font-specification:'Sans, Normal'"
         d="m 87.922977,78.935555 q -0.941922,0 -1.481676,-0.444503 -0.539753,-0.455086 -0.539753,-1.227674 0,-0.624421 0.338669,-1.016006 0.349252,-0.40217 0.994839,-0.751422 -0.370419,-0.349252 -0.56092,-0.677337 -0.179918,-0.328086 -0.179918,-0.751422 0,-0.62442 0.444503,-0.984256 0.455086,-0.359836 1.227674,-0.359836 0.730255,0 1.153591,0.349253 0.433919,0.338668 0.433919,0.984256 0,0.518586 -0.349252,0.889005 -0.338669,0.370419 -0.920756,0.677338 l 1.52401,1.492259 q 0.412753,-0.539753 0.613837,-1.344091 h 0.899589 q -0.137584,0.550336 -0.381002,1.047756 -0.232835,0.486837 -0.539754,0.857256 l 1.206508,1.174757 H 90.653494 L 89.98674,78.184134 q -0.402169,0.359835 -0.857255,0.56092 -0.455086,0.190501 -1.206508,0.190501 z m 0.0635,-3.778274 q 0.433919,-0.232834 0.687921,-0.486836 0.254001,-0.254002 0.254001,-0.613837 0,-0.328086 -0.222251,-0.508003 -0.211668,-0.190502 -0.56092,-0.190502 -0.381003,0 -0.603254,0.190502 -0.211668,0.190501 -0.211668,0.52917 0,0.306918 0.169334,0.56092 0.179918,0.254001 0.486837,0.518586 z m 0.01058,3.07977 q 0.433919,0 0.783172,-0.137584 0.359835,-0.148168 0.65617,-0.423336 l -1.693344,-1.672178 q -0.412752,0.232835 -0.687921,0.486837 -0.275168,0.243418 -0.275168,0.709088 0,0.486836 0.328085,0.762004 0.338669,0.275169 0.889006,0.275169 z M 101.45385,71.29434 q 1.41817,0 2.13784,0.423336 0.73026,0.412753 0.73026,1.449926 0,0.666754 -0.37042,1.111257 -0.37042,0.43392 -1.06893,0.56092 v 0.05292 q 0.47626,0.07408 0.85726,0.275169 0.39159,0.201084 0.61384,0.571503 0.22225,0.370419 0.22225,0.96309 0,1.02659 -0.70909,1.58751 -0.6985,0.56092 -1.91559,0.56092 H 99.294832 V 71.29434 Z m 0.1905,3.217354 q 0.97367,0 1.3335,-0.306919 0.35984,-0.317502 0.35984,-0.931339 0,-0.62442 -0.4445,-0.889005 -0.43392,-0.275169 -1.39701,-0.275169 h -1.24884 v 2.402432 z m -1.39701,0.793755 v 2.741101 h 1.52401 q 1.00542,0 1.39701,-0.391586 0.39158,-0.391586 0.39158,-1.02659 0,-0.59267 -0.41275,-0.952506 -0.40217,-0.370419 -1.44993,-0.370419 z m 7.10409,3.545439 v -0.52917 l 0.68793,-0.169334 v -4.646113 l -0.68793,-0.158751 v -0.550337 h 2.30719 v 0.550337 l -0.68793,0.158751 v 4.646113 l 0.68793,0.169334 v 0.52917 z m 10.6813,-3.037436 q 0,0.931339 -0.30692,1.640427 -0.30692,0.698505 -0.93134,1.09009 -0.62442,0.391586 -1.58751,0.391586 -0.95251,0 -1.58751,-0.391586 -0.63501,-0.391585 -0.95251,-1.100673 -0.30692,-0.709088 -0.30692,-1.640427 0,-0.920756 0.30692,-1.61926 0.3175,-0.698505 0.95251,-1.090091 0.635,-0.391585 1.58751,-0.391585 0.96309,0 1.58751,0.391585 0.62442,0.391586 0.93134,1.100674 0.30692,0.698504 0.30692,1.61926 z m -4.69903,0 q 0,1.05834 0.4445,1.693344 0.45509,0.635004 1.41817,0.635004 0.97368,0 1.41818,-0.635004 0.4445,-0.635004 0.4445,-1.693344 0,-1.100673 -0.46567,-1.703927 -0.46567,-0.613837 -1.39701,-0.613837 -0.96308,0 -1.41817,0.635004 -0.4445,0.62442 -0.4445,1.68276 z m 11.44329,1.365259 q 0,0.783171 -0.58209,1.270008 -0.58208,0.486836 -1.61926,0.486836 -0.58208,0 -1.00542,-0.07408 -0.42333,-0.07408 -0.78317,-0.222251 v -0.846672 q 0.81492,0.381002 1.78859,0.381002 0.56092,0 0.91018,-0.232834 0.34925,-0.243419 0.34925,-0.687921 0,-0.455087 -0.35984,-0.677338 -0.34925,-0.232835 -1.03717,-0.476253 -0.762,-0.275168 -1.17476,-0.645587 -0.41275,-0.370419 -0.41275,-1.100674 0,-0.52917 0.27517,-0.889006 0.27517,-0.370419 0.74084,-0.56092 0.47625,-0.190501 1.06892,-0.190501 0.49742,0 0.93134,0.105834 0.4445,0.105834 0.81492,0.264585 l -0.29633,0.730255 q -0.38101,-0.169335 -0.76201,-0.254002 -0.37042,-0.09525 -0.70909,-0.09525 -0.51858,0 -0.83609,0.222252 -0.30691,0.222251 -0.30691,0.635004 0,0.306918 0.15875,0.49742 0.15875,0.190501 0.46567,0.328085 0.3175,0.137584 0.75142,0.306919 0.47625,0.179917 0.84667,0.391585 0.37042,0.211668 0.5715,0.52917 0.21167,0.306919 0.21167,0.804339 z m 6.81834,-4.381528 v 0.793755 h -1.79918 v 5.25995 h -0.92075 v -5.25995 h -1.79918 v -0.793755 z m 1.65365,6.053705 2.28602,-6.074872 h 1.04775 l 2.25427,6.074872 h -1.01601 l -0.60325,-1.725094 h -2.31777 l -0.635,1.725094 z m 3.11152,-4.191026 q -0.0741,-0.222252 -0.16933,-0.476253 -0.0847,-0.254002 -0.13759,-0.508004 -0.0635,0.254002 -0.14817,0.49742 -0.0741,0.243418 -0.15875,0.49742 l -0.59267,1.682761 h 1.7886 z m 8.65986,-1.862679 v 0.793755 h -1.79917 v 5.25995 h -0.92076 v -5.25995 h -1.79918 v -0.793755 z m 2.30982,6.053705 v -0.52917 l 0.68793,-0.169334 v -4.646113 l -0.68793,-0.158751 v -0.550337 h 2.30719 v 0.550337 l -0.68793,0.158751 v 4.646113 l 0.68793,0.169334 v 0.52917 z m 8.92445,-1.672177 q 0,0.783171 -0.58208,1.270008 -0.58209,0.486836 -1.61926,0.486836 -0.58209,0 -1.00543,-0.07408 -0.42333,-0.07408 -0.78317,-0.222251 v -0.846672 q 0.81492,0.381002 1.7886,0.381002 0.56092,0 0.91017,-0.232834 0.34925,-0.243419 0.34925,-0.687921 0,-0.455087 -0.35983,-0.677338 -0.34926,-0.232835 -1.03718,-0.476253 -0.762,-0.275168 -1.17476,-0.645587 -0.41275,-0.370419 -0.41275,-1.100674 0,-0.52917 0.27517,-0.889006 0.27517,-0.370419 0.74084,-0.56092 0.47625,-0.190501 1.06892,-0.190501 0.49742,0 0.93134,0.105834 0.4445,0.105834 0.81492,0.264585 l -0.29633,0.730255 q -0.381,-0.169335 -0.76201,-0.254002 -0.37042,-0.09525 -0.70908,-0.09525 -0.51859,0 -0.83609,0.222252 -0.30692,0.222251 -0.30692,0.635004 0,0.306918 0.15875,0.49742 0.15875,0.190501 0.46567,0.328085 0.3175,0.137584 0.75142,0.306919 0.47625,0.179917 0.84667,0.391585 0.37042,0.211668 0.57151,0.52917 0.21166,0.306919 0.21166,0.804339 z m 6.81834,-4.381528 v 0.793755 h -1.79918 v 5.25995 h -0.92076 v -5.25995 h -1.79917 v -0.793755 z m 2.30982,6.053705 v -0.52917 l 0.68792,-0.169334 v -4.646113 l -0.68792,-0.158751 v -0.550337 h 2.30718 v 0.550337 l -0.68792,0.158751 v 4.646113 l 0.68792,0.169334 v 0.52917 z m 10.68129,-3.037436 q 0,1.05834 -0.41275,1.841512 -0.40217,0.783171 -1.30176,1.09009 l 1.43934,1.545176 h -1.24884 l -1.143,-1.354675 h -0.15876 q -0.9525,0 -1.58751,-0.391586 -0.635,-0.391585 -0.9525,-1.100673 -0.30692,-0.709088 -0.30692,-1.640427 0,-0.920756 0.30692,-1.61926 0.3175,-0.698505 0.9525,-1.090091 0.63501,-0.391585 1.58751,-0.391585 0.96309,0 1.58751,0.391585 0.62443,0.391586 0.93134,1.100674 0.30692,0.698504 0.30692,1.61926 z m -4.67786,0 q 0,1.05834 0.4445,1.703928 0.44451,0.635004 1.40759,0.635004 0.98426,0 1.41818,-0.635004 0.4445,-0.635004 0.4445,-1.703928 0,-1.100673 -0.46567,-1.703927 -0.45508,-0.613837 -1.38642,-0.613837 -0.96309,0 -1.41818,0.635004 -0.4445,0.635004 -0.4445,1.68276 z m 12.57572,0.793755 q 0,1.09009 -0.63501,1.714511 -0.635,0.613837 -1.82034,0.613837 -1.15359,0 -1.77801,-0.603254 -0.61384,-0.613837 -0.61384,-1.71451 v -3.820608 h 0.93134 v 3.778274 q 0,0.772588 0.381,1.185341 0.39159,0.402169 1.13242,0.402169 0.71967,0 1.09009,-0.402169 0.38101,-0.412753 0.38101,-1.164174 v -3.799441 h 0.93134 z m 3.32583,-3.810024 h 3.47136 v 0.751422 h -2.5506 v 1.788594 h 2.39185 v 0.740838 h -2.39185 v 2.02143 h 2.5506 v 0.751421 h -3.47136 z m 10.18387,4.381528 q 0,0.783171 -0.58208,1.270008 -0.58209,0.486836 -1.61926,0.486836 -0.58209,0 -1.00543,-0.07408 -0.42333,-0.07408 -0.78317,-0.222251 v -0.846672 q 0.81492,0.381002 1.7886,0.381002 0.56092,0 0.91017,-0.232834 0.34925,-0.243419 0.34925,-0.687921 0,-0.455087 -0.35983,-0.677338 -0.34926,-0.232835 -1.03718,-0.476253 -0.762,-0.275168 -1.17475,-0.645587 -0.41276,-0.370419 -0.41276,-1.100674 0,-0.52917 0.27517,-0.889006 0.27517,-0.370419 0.74084,-0.56092 0.47625,-0.190501 1.06892,-0.190501 0.49742,0 0.93134,0.105834 0.4445,0.105834 0.81492,0.264585 l -0.29633,0.730255 q -0.381,-0.169335 -0.76201,-0.254002 -0.37042,-0.09525 -0.70908,-0.09525 -0.51859,0 -0.83609,0.222252 -0.30692,0.222251 -0.30692,0.635004 0,0.306918 0.15875,0.49742 0.15875,0.190501 0.46567,0.328085 0.3175,0.137584 0.75142,0.306919 0.47625,0.179917 0.84667,0.391585 0.37042,0.211668 0.57151,0.52917 0.21166,0.306919 0.21166,0.804339 z"
         id="path3" />
      <text
         xml:space="preserve"
         style="font-style:normal;font-variant:normal;font-weight:normal;font-stretch:normal;font-size:10.5834px;line-height:1.1;font-family:'Libre Baskerville';-inkscape-font-specification:'Libre Baskerville';text-align:start;letter-spacing:1.8124px;word-spacing:0px;writing-mode:lr-tb;direction:ltr;text-anchor:start;display:none;fill:#2c3a33;fill-opacity:0.599078;stroke-width:0.860977;stroke-linejoin:round"
         x="85.467628"
         y="67.18145"
         id="text2"
         inkscape:label="Sous-titre_texte"><tspan
           sodipodi:role="line"
           style="font-style:normal;font-variant:normal;font-weight:normal;font-stretch:normal;font-size:10.5834px;line-height:1.1;font-family:Sans;-inkscape-font-specification:'Sans, Normal';font-variant-ligatures:normal;font-variant-caps:small-caps;font-variant-numeric:normal;font-variant-east-asian:normal;letter-spacing:1.8124px;word-spacing:0px;fill:#2c3a33;fill-opacity:0.599078;stroke-width:0.860977"
           x="85.467628"
           y="67.18145"
           id="tspan1">Ingénierie écologique </tspan><tspan
           sodipodi:role="line"
           style="font-style:normal;font-variant:normal;font-weight:normal;font-stretch:normal;font-size:10.5834px;line-height:1.1;font-family:Sans;-inkscape-font-specification:'Sans, Normal';font-variant-ligatures:normal;font-variant-caps:small-caps;font-variant-numeric:normal;font-variant-east-asian:normal;letter-spacing:1.8124px;word-spacing:0px;fill:#2c3a33;fill-opacity:0.599078;stroke-width:0.860977"
           x="85.467628"
           y="78.850891"
           id="tspan2">&amp; Biostatistiques</tspan></text>
    </g>
    <text
       xml:space="preserve"
       style="font-size:35.3091px;line-height:0;font-family:'Libre Baskerville';-inkscape-font-specification:'Libre Baskerville';text-align:start;writing-mode:lr-tb;direction:ltr;text-anchor:start;fill:#2c3a33;fill-opacity:1;stroke-width:0.860977;stroke-linejoin:round"
       x="84.549217"
       y="48.096321"
       id="text6"
       inkscape:label="Titre"><tspan
         sodipodi:role="line"
         id="tspan6"
         style="font-style:normal;font-variant:normal;font-weight:normal;font-stretch:normal;font-size:35.3091px;line-height:0;font-family:'Libre Baskerville';-inkscape-font-specification:'Libre Baskerville';fill:#2c3a33;fill-opacity:1;stroke-width:0.860977"
         x="84.549217"
         y="48.096321">Biocena</tspan></text>
    <g
       id="g1"
       inkscape:label="Logo"
       transform="matrix(1.3846153,0,0,1.3846153,-6.0905439,0.59355848)">
      <rect
         style="fill:#2c3a33;fill-opacity:1;stroke-width:0.444691;stroke-linejoin:round"
         id="rect10"
         width="48.807278"
         height="49.828949"
         x="10.21956"
         y="7.7297616"
         inkscape:label="Cadre_logo" />
      <path
         style="fill:#ffffff;fill-opacity:1;stroke-width:0.23144"
         d="m 23.750642,47.980704 c 0.0215,-0.26311 0.008,-0.25668 0.82454,-0.40923 0.61007,-0.11405 1.07073,-0.32007 1.40925,-0.63027 0.33759,-0.30935 0.52359,-0.64483 0.68502,-1.23555 0.12811,-0.46882 0.13427,-0.6185 0.15627,-3.7986 l 0.0229,-3.31057 0.73464,-0.60273 c 0.89169,-0.73159 2.54739,-1.99582 2.61383,-1.99582 0.0265,0 0.0484,1.96343 0.0486,4.36317 2.3e-4,2.57669 0.026,4.58912 0.0629,4.91505 0.14228,1.25986 0.73052,1.87885 1.96554,2.06832 0.20507,0.0315 1.2435,0.0899 2.30761,0.12987 2.91397,0.10944 4.29534,-0.007 5.69494,-0.47812 1.12668,-0.37964 2.02817,-0.95807 2.82001,-1.80944 1.93643,-2.08196 2.60521,-5.47336 1.61955,-8.21266 -0.91397,-2.54005 -3.33568,-4.43932 -6.32334,-4.95918 -0.82833,-0.14413 -2.07883,-0.0939 -2.85776,0.11481 -1.33853,0.35866 -3.3954,1.45442 -5.35319,2.85183 -3.95251,2.82119 -7.57374,6.51254 -10.489431,10.69256 -0.428774,0.6147 -0.528687,0.69535 -0.67617,0.54577 -0.09837,-0.0998 -0.09828,-0.11822 0.0015,-0.33093 0.183443,-0.39016 1.048771,-1.72515 1.898723,-2.92923 2.465758,-3.49312 5.144738,-6.28239 8.072608,-8.40492 2.04669,-1.48374 4.42045,-2.68623 6.63692,-3.36213 2.24256,-0.68384 3.59073,-1.79695 4.5624,-3.76693 0.56786,-1.15132 0.78611,-2.13381 0.78084,-3.5152 -0.003,-0.88647 -0.0238,-1.09312 -0.15824,-1.60413 -0.29859,-1.13477 -0.77373,-1.96799 -1.55008,-2.71828 -1.01191,-0.97792 -2.09484,-1.49087 -3.78691,-1.79368 -0.62959,-0.11267 -3.84669,-0.11347 -4.32856,-0.001 -0.41005,0.0956 -0.63588,0.26017 -0.7711,0.56179 -0.0893,0.19923 -0.10101,0.9261 -0.1193,7.40549 l -0.0203,7.18458 -0.70923,0.46252 c -0.39008,0.25439 -1.15392,0.8018 -1.69742,1.21648 l -0.98819,0.75395 -0.002,-7.59934 c -0.002,-8.19371 -0.002,-8.17951 -0.32066,-8.88596 -0.18312,-0.40569 -0.54454,-0.78541 -0.93682,-0.98426 -0.34956,-0.17721 -0.48469,-0.21504 -1.23335,-0.34538 l -0.57759,-0.10057 v -0.21418 -0.21419 l 6.22791,-0.0157 c 6.76356,-0.017 6.95979,-0.01 8.42317,0.32431 3.6303,0.82815 5.81529,3.0735 5.97478,6.13984 0.11873,2.28263 -0.96312,4.37254 -3.04289,5.87823 -0.60882,0.44075 -1.69398,1.02992 -2.41253,1.30981 l -0.45602,0.17764 0.48642,0.0471 c 1.76873,0.17137 3.06454,0.44061 4.07383,0.84642 1.41477,0.56888 2.92248,1.54879 3.67709,2.38987 0.90457,1.00824 1.55841,2.29577 1.85581,3.65447 0.1565,0.71496 0.19187,2.42255 0.0658,3.18255 -0.40591,2.44929 -1.78128,4.50468 -3.89634,5.82277 -0.9008,0.56136 -2.07593,1.00728 -3.28336,1.24591 -0.66078,0.13059 -0.77165,0.13244 -9.20031,0.15383 l -8.53148,0.0217 z"
         id="path10"
         sodipodi:nodetypes="csssscsscssssssssssscsssscssscsscsscccsscccscssscsssssssscc"
         inkscape:label="B" />
      <ellipse
         style="fill:#7c845a;fill-opacity:1;stroke-width:0.19537;stroke-linejoin:round"
         id="ellipse10"
         cx="37.063858"
         cy="41.236423"
         rx="1.9007685"
         ry="1.9278656"
         inkscape:label="Point" />
    </g>
  </g>
</svg>
